<svg width="117" height="37" viewBox="0 0 117 37" fill="none" xmlns="http://www.w3.org/2000/svg">
<path d="M2.99492 13.94C6.26159 13.5133 9.10159 12.6533 11.5149 11.36L11.9549 13.38C9.90159 14.6733 7.62159 15.6133 5.11492 16.2C4.27492 16.3867 3.44826 16.5 2.63492 16.54L0.154922 14.24C0.154922 13.2933 0.214922 12.56 0.334922 12.04C0.854922 9.84 2.12826 8.06667 4.15492 6.72C5.06159 6.12 5.98159 5.67333 6.91492 5.38L10.1149 7.76C10.0483 8.06667 9.86159 8.55333 9.55492 9.22C9.04826 10.34 8.64826 11.1067 8.35492 11.52L5.83492 9.92C6.55492 9.01333 7.00826 8.25333 7.19492 7.64C5.91492 8.18667 4.87492 9.06667 4.07492 10.28C3.35492 11.3733 2.99492 12.5933 2.99492 13.94ZM16.3199 14.5C15.4799 15.3 14.3999 15.98 13.0799 16.54L10.4199 14.24C10.6066 12.7333 11.0733 11.2467 11.8199 9.78C12.5666 8.31333 13.5266 6.78667 14.6999 5.2L16.7599 6.78C14.8933 9.3 13.7133 11.5933 13.2199 13.66C13.2333 13.66 13.3533 13.6267 13.5799 13.56C13.8199 13.48 14.1266 13.3333 14.4999 13.12C15.4466 12.5867 16.3199 11.82 17.1199 10.82C18.0533 8.92667 18.9466 7.38 19.7999 6.18L21.9399 7.84C20.6866 9.68 19.6666 11.5 18.8799 13.3L18.7999 13.34C19.6533 13.1133 20.5799 12.7667 21.5799 12.3C22.5933 11.8333 23.2399 11.52 23.5199 11.36L23.9399 13.38C23.1133 13.98 21.8133 14.72 20.0399 15.6C19.3199 15.96 18.6666 16.2467 18.0799 16.46L16.3199 14.5ZM24.1721 7.04C24.8121 6.17333 25.6121 5.27333 26.5721 4.34L28.4321 5.78C28.2854 6.39333 28.1588 6.84 28.0521 7.12C29.7721 6.93333 31.0121 6.74667 31.7721 6.56C32.5321 6.37333 33.1921 6.20667 33.7521 6.06L34.3121 8.44C33.7654 8.6 33.1921 8.74 32.5921 8.86C31.6721 10.3133 30.9054 11.8533 30.2921 13.48C32.5054 12.72 34.1388 12.0133 35.1921 11.36L35.6321 13.38C34.4054 14.18 32.7988 15 30.8121 15.84C30.1721 16.1067 29.5588 16.34 28.9721 16.54L26.8521 14.42C27.7188 12.4333 28.6454 10.72 29.6321 9.28C28.6988 9.36 27.8721 9.41333 27.1521 9.44C26.9388 9.84 26.3654 10.84 25.4321 12.44L23.9521 13.38L22.0521 12.26C23.1588 11.06 23.9054 10.22 24.2921 9.74C24.6788 9.26 25.0121 8.84667 25.2921 8.5C24.9054 8.07333 24.5321 7.58667 24.1721 7.04ZM35.8518 7.04C36.4918 6.17333 37.2918 5.27333 38.2518 4.34L40.1118 5.78C39.9651 6.39333 39.8385 6.84 39.7318 7.12C41.4518 6.93333 42.6918 6.74667 43.4518 6.56C44.2118 6.37333 44.8718 6.20667 45.4318 6.06L45.9918 8.44C45.4451 8.6 44.8718 8.74 44.2718 8.86C43.3518 10.3133 42.5851 11.8533 41.9718 13.48C44.1851 12.72 45.8185 12.0133 46.8718 11.36L47.3118 13.38C46.0851 14.18 44.4785 15 42.4918 15.84C41.8518 16.1067 41.2385 16.34 40.6518 16.54L38.5318 14.42C39.3985 12.4333 40.3251 10.72 41.3118 9.28C40.3785 9.36 39.5518 9.41333 38.8318 9.44C38.6185 9.84 38.0451 10.84 37.1118 12.44L35.6318 13.38L33.7318 12.26C34.8385 11.06 35.5851 10.22 35.9718 9.74C36.3585 9.26 36.6918 8.84667 36.9718 8.5C36.5851 8.07333 36.2118 7.58667 35.8518 7.04ZM51.6315 4.68C51.3248 4.36 51.1715 3.97333 51.1715 3.52C51.1715 3.06667 51.3248 2.68667 51.6315 2.38C51.9515 2.06 52.3382 1.9 52.7915 1.9C53.2448 1.9 53.6248 2.06 53.9315 2.38C54.2515 2.68667 54.4115 3.06667 54.4115 3.52C54.4115 3.97333 54.2515 4.36 53.9315 4.68C53.6248 4.98667 53.2448 5.14 52.7915 5.14C52.3382 5.14 51.9515 4.98667 51.6315 4.68ZM48.6115 13.48C49.9715 13.0667 51.6048 12.36 53.5115 11.36L53.9315 13.38C52.6382 14.22 51.0782 15.04 49.2515 15.84C48.6382 16.1067 48.0382 16.34 47.4515 16.54L45.1515 14.42C45.8048 12.6333 46.9782 10.4067 48.6715 7.74C49.1782 6.94 49.6715 6.24 50.1515 5.64L52.1315 7.1C51.1582 8.43333 50.2115 10.04 49.2915 11.92C49.0248 12.48 48.7982 13 48.6115 13.48ZM55.6121 13.94C58.8788 13.5133 61.7188 12.6533 64.1321 11.36L64.5721 13.38C62.5188 14.6733 60.2388 15.6133 57.7321 16.2C56.8921 16.3867 56.0654 16.5 55.2521 16.54L52.7721 14.24C52.7721 13.2933 52.8321 12.56 52.9521 12.04C53.4721 9.84 54.7454 8.06667 56.7721 6.72C57.6788 6.12 58.5988 5.67333 59.5321 5.38L62.7321 7.76C62.6654 8.06667 62.4788 8.55333 62.1721 9.22C61.6654 10.34 61.2654 11.1067 60.9721 11.52L58.4521 9.92C59.1721 9.01333 59.6254 8.25333 59.8121 7.64C58.5321 8.18667 57.4921 9.06667 56.6921 10.28C55.9721 11.3733 55.6121 12.5933 55.6121 13.94ZM68.9371 14.5C68.0971 15.3 67.0171 15.98 65.6971 16.54L63.0371 14.24C63.2238 12.7333 63.6904 11.2467 64.4371 9.78C65.1838 8.31333 66.1438 6.78667 67.3171 5.2L69.3771 6.78C67.5104 9.3 66.3304 11.5933 65.8371 13.66C65.8504 13.66 65.9704 13.6267 66.1971 13.56C66.4371 13.48 66.7438 13.3333 67.1171 13.12C68.0638 12.5867 68.9371 11.82 69.7371 10.82C70.6704 8.92667 71.5638 7.38 72.4171 6.18L74.5571 7.84C73.3038 9.68 72.2838 11.5 71.4971 13.3L71.4171 13.34C72.2704 13.1133 73.1971 12.7667 74.1971 12.3C75.2104 11.8333 75.8571 11.52 76.1371 11.36L76.5571 13.38C75.7304 13.98 74.4304 14.72 72.6571 15.6C71.9371 15.96 71.2838 16.2467 70.6971 16.46L68.9371 14.5ZM74.7693 14.24C75.3426 12.1733 76.3626 9.83333 77.8293 7.22C78.8026 5.48667 79.896 3.94667 81.1093 2.6C81.7226 1.92 82.356 1.34667 83.0093 0.879999L86.3893 3.26C85.936 6.9 84.2826 9.46667 81.4293 10.96C80.5093 11.44 79.4826 11.82 78.3493 12.1C78.0293 12.8867 77.7826 13.56 77.6093 14.12C79.2626 13.8933 80.5493 13.64 81.4693 13.36C83.2693 12.8267 84.7693 12.16 85.9693 11.36L86.3893 13.38C84.4293 14.74 82.2026 15.6867 79.7093 16.22C78.8826 16.3933 78.0626 16.5 77.2493 16.54L74.7693 14.24ZM79.5093 9.6C80.7226 9.02667 81.6893 8.2 82.4093 7.12C83.1293 6.04 83.6093 4.77333 83.8493 3.32C82.796 4.26667 81.6693 5.77333 80.4693 7.84C80.1226 8.42667 79.8026 9.01333 79.5093 9.6ZM90.773 14.5C89.933 15.3 88.853 15.98 87.533 16.54L84.873 14.24C85.0597 12.7333 85.5264 11.2467 86.273 9.78C87.0197 8.31333 87.9797 6.78667 89.153 5.2L91.213 6.78C89.3464 9.3 88.1664 11.5933 87.673 13.66C87.6864 13.66 87.8064 13.6267 88.033 13.56C88.273 13.48 88.5797 13.3333 88.953 13.12C89.8997 12.5867 90.773 11.82 91.573 10.82C92.5064 8.92667 93.3997 7.38 94.253 6.18L96.393 7.84C95.1397 9.68 94.1197 11.5 93.333 13.3L93.253 13.34C94.1064 13.1133 95.033 12.7667 96.033 12.3C97.0464 11.8333 97.693 11.52 97.973 11.36L98.393 13.38C97.5664 13.98 96.2664 14.72 94.493 15.6C93.773 15.96 93.1197 16.2467 92.533 16.46L90.773 14.5ZM107.885 9.22C108.965 8.35333 110.165 7.56667 111.485 6.86L113.905 8.76C113.479 10.5333 112.772 12.06 111.785 13.34C113.079 12.9 114.585 12.24 116.305 11.36L116.725 13.38C116.179 13.74 115.345 14.2 114.225 14.76C112.305 15.7067 110.979 16.3 110.245 16.54L107.765 14.78C109.419 12.7933 110.392 11.18 110.685 9.94C109.285 10.62 107.965 11.4067 106.725 12.3C106.072 13.7667 105.265 15.18 104.305 16.54L102.005 14.96C102.645 14.1067 103.185 13.28 103.625 12.48C104.332 11.1733 104.765 10.1467 104.925 9.4C103.645 10 102.465 10.68 101.385 11.44C101.012 11.6933 100.619 11.9667 100.205 12.26C99.6052 13.6733 99.0786 15.1 98.6252 16.54L96.2452 15C96.6986 13.4667 97.4052 11.74 98.3652 9.82C99.2319 8.1 100.139 6.64667 101.085 5.46L103.105 6.92C102.625 7.57333 102.199 8.24667 101.825 8.94C103.039 7.94 104.339 7.06667 105.725 6.32L108.145 8.22L107.885 9.22ZM36.0713 33.38C39.098 30.74 41.8113 27.2133 44.2113 22.8L46.3713 24.94C44.4247 28.5933 41.9847 31.7867 39.0513 34.52C38.1313 35.3867 37.2113 36.1333 36.2913 36.76L34.1913 34.82C34.7113 34.4733 35.118 34.1733 35.4113 33.92L33.3713 32.14C34.1847 29.5267 35.278 27.1867 36.6513 25.12C36.198 25.3333 35.4447 25.7267 34.3913 26.3L33.4113 24C34.7447 23.24 35.7313 22.7333 36.3713 22.48C37.0113 22.2267 37.5713 22.02 38.0513 21.86L40.2713 24.22C38.2447 27.38 36.8447 30.4333 36.0713 33.38ZM50.5768 24.68C50.2701 24.36 50.1168 23.9733 50.1168 23.52C50.1168 23.0667 50.2701 22.6867 50.5768 22.38C50.8968 22.06 51.2835 21.9 51.7368 21.9C52.1901 21.9 52.5701 22.06 52.8768 22.38C53.1968 22.6867 53.3568 23.0667 53.3568 23.52C53.3568 23.9733 53.1968 24.36 52.8768 24.68C52.5701 24.9867 52.1901 25.14 51.7368 25.14C51.2835 25.14 50.8968 24.9867 50.5768 24.68ZM47.5568 33.48C48.9168 33.0667 50.5501 32.36 52.4568 31.36L52.8768 33.38C51.5835 34.22 50.0235 35.04 48.1968 35.84C47.5835 36.1067 46.9835 36.34 46.3968 36.54L44.0968 34.42C44.7501 32.6333 45.9235 30.4067 47.6168 27.74C48.1235 26.94 48.6168 26.24 49.0968 25.64L51.0768 27.1C50.1035 28.4333 49.1568 30.04 48.2368 31.92C47.9701 32.48 47.7435 33 47.5568 33.48ZM57.3374 27.16C58.5774 27.0267 59.4908 26.88 60.0774 26.72L60.5374 28.88C59.3641 29.1733 57.8708 29.3467 56.0574 29.4C55.2441 31 54.6374 32.4533 54.2374 33.76C55.3174 33.5733 56.4708 33.3067 57.6974 32.96C58.9241 32.6 60.1574 32.0667 61.3974 31.36L61.8174 33.38C60.6041 34.22 59.2174 34.94 57.6574 35.54C56.1241 36.1267 54.7641 36.46 53.5774 36.54L51.0974 34.24C51.8841 31.6267 53.2241 28.8733 55.1174 25.98C55.7041 25.0733 56.3308 24.2 56.9974 23.36L58.7774 25C58.2574 25.72 57.7774 26.44 57.3374 27.16ZM66.7427 34.74C65.6894 35.5667 64.4761 36.1667 63.1027 36.54L60.6227 34.24C60.6227 33.1867 60.7827 32.1533 61.1027 31.14C61.4227 30.1267 61.8961 29.2133 62.5227 28.4C63.1494 27.5867 63.9227 26.9133 64.8427 26.38C65.7761 25.8333 66.8494 25.5067 68.0627 25.4L69.3827 27.42C69.5427 27.1667 69.8827 26.7267 70.4027 26.1L72.3627 27.78C71.0427 29.5 69.9494 31.34 69.0827 33.3L69.0227 33.34C69.7961 33.14 70.7027 32.8 71.7427 32.32C72.7827 31.8267 73.4427 31.5067 73.7227 31.36L74.1627 33.38C73.3761 33.9533 72.0694 34.6933 70.2427 35.6C69.5227 35.96 68.8694 36.2467 68.2827 36.46L66.7427 34.74ZM63.4227 33.66C64.8494 33.2733 66.1494 32.3267 67.3227 30.82C67.6694 30.06 67.9294 29.1133 68.1027 27.98C66.7294 28.1133 65.6027 28.72 64.7227 29.8C63.8561 30.8667 63.4227 32.1533 63.4227 33.66ZM77.647 32.14C77.0203 32.14 76.527 32.0933 76.167 32C75.9536 32.52 75.8203 33.1667 75.767 33.94C78.0603 33.8067 80.2736 33.2933 82.407 32.4C83.127 32.1067 83.8203 31.76 84.487 31.36L84.907 33.38C83.667 34.1667 82.2003 34.86 80.507 35.46C78.707 36.1 77.007 36.46 75.407 36.54L72.927 34.24C72.927 32.4 73.427 30.72 74.427 29.2C75.147 28.1467 75.9603 27.3133 76.867 26.7C77.787 26.0867 78.667 25.6467 79.507 25.38L82.887 28.18C82.5536 29.5667 81.9203 30.5733 80.987 31.2C80.0536 31.8267 78.9403 32.14 77.647 32.14ZM77.007 30.2C77.7803 30.2 78.4536 29.9867 79.027 29.56C79.6936 29.0533 80.027 28.3467 80.027 27.44C78.6803 28.1733 77.6736 29.0933 77.007 30.2Z" fill="black"/>
</svg>
