<svg width="80" height="40" viewBox="0 0 80 40" fill="none" xmlns="http://www.w3.org/2000/svg">
<g clip-path="url(#clip0_18_2)">
<path d="M41.3025 18.9313L45.1085 18.6718C45.1954 19.3282 45.3546 19.8168 45.6151 20.1679C46.0347 20.7176 46.6136 20.9924 47.3806 20.9924C47.945 20.9924 48.3936 20.855 48.6975 20.5649C48.987 20.3359 49.1606 19.9695 49.1606 19.5878C49.1606 19.2214 49.0015 18.8702 48.7265 18.6412C48.4371 18.3664 47.7569 18.0916 46.686 17.8473C44.9349 17.4351 43.6758 16.8855 42.9378 16.1832C42.1997 15.5267 41.78 14.5649 41.809 13.542C41.809 12.8397 42.0116 12.1374 42.3879 11.5573C42.822 10.9008 43.4153 10.3817 44.1245 10.0916C44.8915 9.74046 45.9624 9.55725 47.3083 9.55725C48.958 9.55725 50.2171 9.87786 51.0854 10.5344C51.9537 11.1756 52.4747 12.2137 52.6339 13.6336L48.8712 13.8626C48.7699 13.2519 48.5673 12.8092 48.2345 12.5191C47.9016 12.229 47.4674 12.0916 46.903 12.0916C46.44 12.0916 46.0926 12.1985 45.8611 12.3969C45.644 12.5802 45.4993 12.855 45.5138 13.1603C45.5138 13.3893 45.6295 13.6031 45.8032 13.7405C45.9913 13.9237 46.4399 14.0916 47.1491 14.2443C48.9002 14.6412 50.1447 15.0382 50.9117 15.4504C51.6787 15.8626 52.2287 16.3664 52.5615 16.9618C52.9088 17.5725 53.0825 18.2748 53.068 18.9924C53.068 19.8473 52.8365 20.7023 52.3734 21.4198C51.8958 22.1679 51.2301 22.7481 50.4486 23.0992C49.6237 23.4809 48.5818 23.6794 47.3372 23.6794C45.1375 23.6794 43.618 23.2366 42.7641 22.3359C41.9103 21.4351 41.4038 20.3053 41.3025 18.9313ZM0.911722 23.4504V9.80153H7.58321C8.81332 9.80153 9.76845 9.9084 10.4197 10.1374C11.0564 10.3511 11.6208 10.7939 11.9971 11.3893C12.4168 12.0458 12.6194 12.8092 12.6049 13.6031C12.6483 14.9466 11.9971 16.229 10.8828 16.9008C10.4486 17.1603 9.97106 17.3435 9.47902 17.4351C9.84081 17.542 10.2026 17.7252 10.521 17.9389C10.767 18.1527 10.9696 18.3969 11.1577 18.6565C11.3748 18.916 11.563 19.2061 11.7221 19.5114L13.6614 23.4656H9.11722L6.9754 19.2672C6.70044 18.7328 6.46889 18.3817 6.25181 18.2137C5.96237 18 5.61505 17.8931 5.26773 17.8931H4.92041V23.4351H0.911722V23.4504ZM4.92041 15.3282H6.6136C6.9754 15.2977 7.32272 15.2366 7.67004 15.145C7.93054 15.0992 8.16209 14.9466 8.32128 14.7176C8.71201 14.1679 8.65413 13.3893 8.17656 12.916C7.91607 12.687 7.40955 12.5649 6.68596 12.5649H4.92041V15.3282ZM0 35.145L3.80608 34.8855C3.89291 35.542 4.0521 36.0305 4.31259 36.3817C4.7178 36.9313 5.31114 37.2214 6.07815 37.2214C6.64255 37.2214 7.09117 37.084 7.39508 36.7939C7.68452 36.5496 7.85818 36.1985 7.85818 35.8168C7.85818 35.4504 7.69899 35.0992 7.42402 34.8702C7.13459 34.5954 6.45441 34.3206 5.36903 34.0763C3.61795 33.6641 2.3589 33.1145 1.62084 32.4122C0.882779 31.7557 0.463097 30.7939 0.492041 29.771C0.492041 29.0687 0.694646 28.3664 1.07091 27.7863C1.50507 27.1298 2.09841 26.6107 2.80753 26.3206C3.57453 25.9695 4.64544 25.7863 5.99132 25.7863C7.6411 25.7863 8.90015 26.1069 9.76845 26.7634C10.6368 27.4198 11.1433 28.4427 11.3025 29.8626L7.5398 30.0916C7.4385 29.4809 7.23589 29.0382 6.90304 28.7481C6.58466 28.458 6.13604 28.3206 5.57164 28.3359C5.10854 28.3359 4.76122 28.4427 4.52967 28.6565C4.29812 28.8397 4.16787 29.1145 4.18235 29.4198C4.18235 29.6489 4.29812 29.8626 4.47178 30C4.65991 30.1832 5.10854 30.3511 5.81766 30.5038C7.56874 30.9008 8.81332 31.2977 9.58032 31.7099C10.3473 32.1221 10.8973 32.626 11.2301 33.2214C11.5774 33.8321 11.7511 34.5343 11.7511 35.2366C11.7511 36.0916 11.5051 36.9313 11.0564 37.6489C10.5789 38.3969 9.91317 38.9771 9.13169 39.3282C8.3068 39.7099 7.26483 39.9084 6.02026 39.9084C3.82055 39.9084 2.30101 39.4656 1.44718 38.5649C0.593343 37.6489 0.115774 36.5191 0 35.145H0Z" fill="black"/>
<path d="M19.2475 34.0763L22.7496 35.1908C22.5615 36.1221 22.1708 37.0076 21.6353 37.7863C21.1433 38.4733 20.492 39.0076 19.754 39.3588C19.0015 39.7099 18.0463 39.8931 16.8886 39.8931C15.4848 39.8931 14.3271 39.6794 13.4443 39.2519C12.547 38.8244 11.78 38.0611 11.1288 36.9771C10.4776 35.8931 10.1592 34.5038 10.1592 32.8092C10.1592 30.5496 10.7236 28.8092 11.8669 27.6031C13.0101 26.3969 14.6165 25.7863 16.7004 25.7863C18.3358 25.7863 19.6093 26.1374 20.5499 26.8244C21.4761 27.5267 22.1708 28.5954 22.6339 30.0305L19.1028 30.855C19.0159 30.5343 18.8857 30.2137 18.712 29.9389C18.4949 29.6183 18.22 29.374 17.8871 29.1908C17.5543 29.0076 17.178 28.9313 16.8017 28.9313C15.89 28.9313 15.1954 29.313 14.7178 30.0916C14.356 30.6565 14.1679 31.5572 14.1679 32.7786C14.1679 34.2901 14.385 35.3282 14.8191 35.8931C15.2533 36.458 15.8611 36.7328 16.657 36.7328C17.424 36.7328 18.0029 36.5038 18.3936 36.0611C18.7844 35.5878 19.0738 34.9313 19.2475 34.0763ZM27.424 26.0153H31.4182V30.7939H35.7887V26.0153H39.8119V39.6641H35.7887V34.1374H31.4182V39.6641H27.424V26.0153V26.0153Z" fill="black"/>
<path d="M39.2619 32.8397C39.2619 30.6107 39.8553 28.8702 41.0275 27.6336C42.1997 26.3969 43.8495 25.771 45.9479 25.771C48.1042 25.771 49.754 26.3817 50.9262 27.6031C52.0984 28.8244 52.6773 30.5344 52.6773 32.7328C52.6773 34.3359 52.4168 35.6336 51.9103 36.6565C51.4182 37.6641 50.6512 38.4885 49.7106 39.0382C48.7409 39.6031 47.5398 39.8931 46.1071 39.8931C44.6454 39.8931 43.4443 39.6489 42.4891 39.1603C41.5051 38.6412 40.6946 37.8321 40.1592 36.8397C39.5658 35.771 39.2619 34.4427 39.2619 32.8397ZM43.2561 32.855C43.2561 34.229 43.5022 35.2214 43.9797 35.8321C44.4573 36.4275 45.123 36.7328 45.9624 36.7328C46.8162 36.7328 47.4819 36.4427 47.9595 35.8473C48.437 35.2519 48.6686 34.1985 48.6686 32.6718C48.6686 31.3893 48.4226 30.4428 47.9305 29.8626C47.4385 29.2672 46.7728 28.9771 45.9334 28.9771C45.1954 28.9466 44.4862 29.2824 43.9942 29.8779C43.5022 30.4733 43.2561 31.4656 43.2561 32.855V32.855ZM56.7728 32.8397C56.7728 30.6107 57.3661 28.8702 58.5383 27.6336C59.7106 26.3969 61.3603 25.771 63.4587 25.771C65.615 25.771 67.2793 26.3817 68.437 27.6031C69.5948 28.8244 70.1881 30.5344 70.1881 32.7328C70.1881 34.3359 69.9276 35.6336 69.4211 36.6565C68.9291 37.6641 68.1621 38.4885 67.2214 39.0382C66.2518 39.6031 65.0506 39.8931 63.6179 39.8931C62.1563 39.8931 60.9551 39.6489 60 39.1603C59.0159 38.6412 58.2055 37.8321 57.67 36.8397C57.0767 35.771 56.7728 34.4427 56.7728 32.8397V32.8397ZM60.767 32.855C60.767 34.229 61.013 35.2214 61.4906 35.8321C61.9682 36.4275 62.6339 36.7328 63.4732 36.7328C64.3271 36.7328 64.9928 36.4427 65.4703 35.8473C65.9479 35.2519 66.1794 34.1985 66.1794 32.6718C66.1794 31.3893 65.9334 30.4428 65.4414 29.8626C64.9493 29.2672 64.2836 28.9771 63.4443 28.9771C62.7062 28.9466 61.9826 29.2824 61.5051 29.8779C61.013 30.4733 60.767 31.4656 60.767 32.855V32.855Z" fill="black"/>
<path d="M69.7685 26.0153H73.7627V36.3053H80V39.6641H69.754V26.0153H69.7685Z" fill="black"/>
<path d="M65.3659 25.2276C69.3873 22.0306 70.6273 16.6113 68.1356 13.1232C65.644 9.63501 60.3642 9.39895 56.3429 12.5959C52.3216 15.7928 51.0815 21.2122 53.5732 24.7003C56.0648 28.1885 61.3446 28.4245 65.3659 25.2276Z" fill="white"/>
<path d="M53 12.055L68.1157 0.610689L78.5752 14.5557L63.4596 26L53 12.055Z" fill="white"/>
<path d="M69.0379 17.6287C71.963 15.414 72.865 11.6598 71.0526 9.24346C69.2401 6.82709 65.3996 6.66356 62.4745 8.87821C59.5494 11.0929 58.6474 14.847 60.4598 17.2634C62.2723 19.6798 66.1128 19.8433 69.0379 17.6287Z" fill="white"/>
<path d="M57.2092 12.9862L67.7936 4.97278L74.3632 13.7318L63.7787 21.7452L57.2092 12.9862Z" fill="white"/>
<path d="M69.0379 17.6287C71.963 15.414 72.865 11.6598 71.0526 9.24346C69.2401 6.82709 65.3996 6.66356 62.4745 8.87821C59.5494 11.0929 58.6474 14.847 60.4598 17.2634C62.2723 19.6798 66.1128 19.8433 69.0379 17.6287Z" fill="white" stroke="black" stroke-width="4" stroke-miterlimit="10"/>
<path d="M57.2092 12.9862L67.7936 4.97278L74.3632 13.7318L63.7787 21.7452L57.2092 12.9862Z" stroke="black" stroke-width="4" stroke-miterlimit="10"/>
<path d="M69.0379 17.6287C71.963 15.414 72.865 11.6598 71.0526 9.24346C69.2401 6.82709 65.3996 6.66356 62.4745 8.87821C59.5494 11.0929 58.6474 14.847 60.4598 17.2634C62.2723 19.6798 66.1128 19.8433 69.0379 17.6287Z" stroke="black" stroke-width="4" stroke-miterlimit="10"/>
<path d="M57.2092 12.9862L67.7936 4.97278L74.3632 13.7318L63.7787 21.7452L57.2092 12.9862Z" fill="white"/>
<path d="M69.0379 17.6287C71.963 15.414 72.865 11.6598 71.0526 9.24346C69.2401 6.82709 65.3996 6.66356 62.4745 8.87821C59.5494 11.0929 58.6474 14.847 60.4598 17.2634C62.2723 19.6798 66.1128 19.8433 69.0379 17.6287Z" fill="white" stroke="black" stroke-width="4" stroke-miterlimit="10"/>
<path d="M57.2092 12.9862L67.7936 4.97278L74.3632 13.7318L63.7787 21.7452L57.2092 12.9862Z" stroke="black" stroke-width="4" stroke-miterlimit="10"/>
<path d="M53 12.055L68.1157 0.610689L78.5752 14.5557L63.4596 26L53 12.055Z" stroke="black" stroke-width="4" stroke-miterlimit="10"/>
<path d="M69.0379 17.6287C71.963 15.414 72.865 11.6598 71.0526 9.24346C69.2401 6.82709 65.3996 6.66356 62.4745 8.87821C59.5494 11.0929 58.6474 14.847 60.4598 17.2634C62.2723 19.6798 66.1128 19.8433 69.0379 17.6287Z" stroke="black" stroke-width="4" stroke-miterlimit="10"/>
<path d="M62.7978 12.5584L63.8504 11.8181L65.1452 13.6689C65.3663 13.965 65.5347 14.2823 65.661 14.6313C65.7347 14.8957 65.7137 15.1813 65.6084 15.4351C65.4716 15.7524 65.2505 16.0168 64.9558 16.2072C64.6084 16.4504 64.3136 16.5879 64.061 16.6302C63.8189 16.6725 63.5662 16.6302 63.3346 16.5245C63.082 16.3975 62.8609 16.2177 62.6925 15.9851L63.5978 15.139C63.6715 15.2553 63.7662 15.3611 63.8715 15.4457C63.9452 15.4986 64.0294 15.5303 64.1241 15.5303C64.1978 15.5303 64.2715 15.4986 64.3242 15.4563C64.4294 15.3928 64.5031 15.2659 64.4926 15.139C64.461 14.9592 64.3873 14.7794 64.2715 14.6419L62.7978 12.5584V12.5584ZM65.9558 13.7323L66.9137 12.9709C67.019 13.0978 67.1558 13.193 67.3032 13.2458C67.5138 13.3093 67.7348 13.267 67.9138 13.1295C68.0401 13.0449 68.1454 12.9286 68.1875 12.7805C68.2506 12.5901 68.1454 12.3786 67.9559 12.3151C67.9243 12.3046 67.8927 12.294 67.8611 12.294C67.7348 12.2834 67.5138 12.3363 67.1874 12.4738C66.6506 12.6959 66.2295 12.7805 65.9137 12.7488C65.6084 12.717 65.3242 12.5584 65.1558 12.294C65.0294 12.1142 64.9663 11.9027 64.9558 11.6911C64.9558 11.4479 65.0189 11.2046 65.1558 11.0037C65.3558 10.7181 65.5979 10.4749 65.8926 10.2845C66.3348 9.97781 66.7243 9.82974 67.0611 9.82974C67.398 9.82974 67.7138 9.98838 68.0085 10.3162L67.0611 11.0672C66.8716 10.8239 66.5137 10.771 66.2716 10.9614L66.24 10.9931C66.1348 11.0566 66.0611 11.1518 66.019 11.2681C65.9874 11.3527 66.0084 11.4479 66.0611 11.5219C66.1032 11.5748 66.1663 11.6171 66.24 11.6171C66.3242 11.6277 66.4716 11.5854 66.6821 11.4902C67.2085 11.2681 67.6085 11.1412 67.8822 11.0989C68.1138 11.0566 68.3559 11.0777 68.577 11.1729C68.777 11.2575 68.9454 11.4056 69.0612 11.5854C69.2086 11.7969 69.2928 12.0507 69.3033 12.3151C69.3138 12.5901 69.2401 12.8545 69.0928 13.0872C68.9033 13.3728 68.6612 13.616 68.377 13.8064C67.798 14.2083 67.3243 14.3775 66.9453 14.314C66.5348 14.2506 66.1979 14.0391 65.9558 13.7323V13.7323Z" fill="black"/>
</g>
<defs>
<clipPath id="clip0_18_2">
<rect width="80" height="40" fill="white"/>
</clipPath>
</defs>
</svg>
