<svg width="200" height="200" viewBox="0 0 200 200" fill="none" xmlns="http://www.w3.org/2000/svg">
<path d="M151.658 0.244316C150.563 0.439766 148.177 1.06521 146.378 1.65156C133.16 5.83419 123.266 16.0367 119.199 29.7573C117.83 34.3699 117.439 44.0251 118.417 48.7159L119.042 51.6477L104.377 66.3064L89.712 80.9652L69.7673 61.0293L49.8617 41.1325L53.1076 37.7707C55.6496 35.1908 56.4708 34.0963 56.6664 32.9626C57.0183 31.2036 56.6664 29.2491 55.8451 28.0764C55.2585 27.2164 31.6377 9.00048 29.9952 8.1405C28.9002 7.55415 25.7717 7.55415 24.6767 8.10141C23.4643 8.72685 8.83823 23.3074 8.1343 24.5583C7.46948 25.8483 7.43037 28.8973 8.05609 30.07C8.95555 31.7899 27.2186 55.4003 28.079 55.9476C29.2913 56.7685 31.1685 57.0812 32.8892 56.7294C34.0233 56.5339 35.1183 55.713 37.6994 53.1722L41.0626 49.9277L60.9682 69.8245L80.9128 89.7604L66.2476 104.419L51.5824 119.078L48.6494 118.452C44.504 117.592 34.7663 117.866 30.5818 119C16.1513 122.87 5.35769 133.385 1.05589 147.809C0.0782144 151.093 0 151.835 0 158.95C0 166.181 0.0391072 166.768 1.05589 170.09C2.62018 175.133 4.02804 178.026 5.31858 178.964C6.60912 179.863 9.30752 180.293 10.9891 179.902C11.6931 179.707 15.5256 176.188 22.1347 169.621L32.1852 159.614L35.4702 160.279L38.7944 160.982L39.4983 164.305L40.1631 167.589L30.1517 177.635C23.5817 184.241 20.062 188.072 19.8665 188.775C19.4754 190.456 19.9056 193.153 20.805 194.443C21.7827 195.773 24.7158 197.18 29.6824 198.665C34.649 200.151 43.5654 200.424 49.0405 199.291C65.4655 195.89 77.7843 183.616 81.1475 167.354C82.0469 162.976 82.1252 154.884 81.3039 150.936L80.7173 148.2L90.7679 138.154C102.07 126.857 100.975 127.443 103.439 131.235C105.355 134.206 106.254 137.528 105.941 140.577C105.785 142.141 105.863 143.587 106.137 144.291C106.372 144.995 116.97 155.901 132.652 171.615C162.099 201.128 160.77 199.994 166.44 199.994C168.552 199.994 170.156 199.76 171.72 199.173C173.832 198.392 174.927 197.414 186.15 186.156C197.413 174.938 198.391 173.843 199.173 171.732C199.76 170.169 199.994 168.566 199.994 166.455C199.994 160.787 201.128 162.155 171.368 132.447C155.999 117.123 144.697 106.139 144.267 106.1C143.836 106.061 141.803 106.022 139.769 106.022C136.406 105.983 135.78 105.865 133.473 104.732C132.104 104.028 130.266 102.895 129.484 102.191L127.998 100.901L138.088 90.8549L148.177 80.7697L150.915 81.3561C154.865 82.177 162.96 82.0988 167.34 81.1997C183.608 77.838 195.888 65.5246 199.29 49.1068C200.424 43.6733 200.151 34.7217 198.665 29.7573C197.296 25.1837 195.575 21.6265 194.246 20.7666C193.033 19.9457 190.374 19.5548 188.771 19.9457C188.067 20.1411 184.234 23.6592 177.625 30.2263L167.574 40.2334L164.289 39.5689L160.965 38.8652L160.261 35.5426L159.597 32.259L169.608 22.2129C176.178 15.6067 179.698 11.7759 179.893 11.0722C180.284 9.39138 179.854 6.69417 178.955 5.4042C177.977 4.07514 175.044 2.6679 170.077 1.18248C166.988 0.244316 165.775 0.127046 160.105 0.00977622C156.546 -0.0293138 152.753 0.0488662 151.658 0.244316ZM161.591 11.9713C162.49 11.9713 161.513 13.1049 154.943 19.672C148.373 26.3173 147.239 27.6073 147.004 28.8973C146.652 30.7736 149.702 45.3542 150.797 47.1523C151.189 47.8168 152.01 48.6377 152.675 49.0286C154.474 50.1232 169.061 53.1722 170.938 52.8204C172.189 52.5858 173.558 51.4522 180.206 44.8851L187.949 37.1844L187.754 42.0706C187.558 47.3087 186.893 49.9668 184.742 54.2276C183.256 57.1203 180.206 60.912 177.39 63.2965C174.731 65.5637 169.1 68.4173 165.58 69.1991C161.747 70.0981 155.412 70.02 151.658 69.0036C147.669 67.9091 145.479 67.6746 144.149 68.2218C142.468 68.9254 68.3203 143.275 68.0075 144.565C67.6555 145.972 67.8901 147.848 68.9851 151.914C69.7673 154.767 69.8455 155.862 69.65 160.122C69.4935 163.68 69.2198 165.673 68.5941 167.55C65.8957 175.563 60.8117 181.426 53.5378 184.945C48.493 187.368 44.8169 188.111 38.677 187.915L37.1519 187.876L44.8169 180.176C51.3869 173.53 52.521 172.24 52.7556 170.95C53.1076 169.074 50.0572 154.493 48.9622 152.695C48.5712 152.031 47.7499 151.21 47.1242 150.819C45.3253 149.724 30.6601 146.675 28.822 147.027C27.5706 147.262 26.2018 148.435 19.6318 154.963L11.8886 162.624V158.754C11.8886 153.829 12.6316 150.702 14.8216 146.245C16.777 142.258 18.8888 139.522 22.2911 136.629C25.0286 134.284 30.621 131.469 34.1797 130.649C38.0122 129.749 44.3476 129.828 48.1019 130.844C51.8953 131.899 53.8115 132.134 55.2194 131.782C56.5099 131.469 130.892 57.3548 131.596 55.6739C132.143 54.3449 131.909 52.1558 130.814 48.1687C129.797 44.416 129.719 38.0834 130.618 34.2526C131.4 30.8909 134.216 25.1837 136.406 22.5256C140.004 18.2257 145.674 14.434 150.837 12.9486C153.535 12.1668 157.915 11.5804 159.479 11.815C160.105 11.8931 161.044 11.9713 161.591 11.9713ZM34.8836 27.021L41.571 32.1027L36.7999 36.8716C34.2188 39.4907 32.0288 41.6015 32.0288 41.5624C31.9897 41.5234 29.6042 38.4352 26.7493 34.6826L21.5481 27.92L24.6375 24.8319C26.3192 23.112 27.8443 21.7829 27.9617 21.822C28.1181 21.9002 31.2076 24.2065 34.8836 27.021ZM122.601 112.315C123.774 113.214 125.691 114.465 126.903 115.091L129.132 116.263L122.601 122.713L116.109 129.163L114.975 126.896C114.35 125.645 112.903 123.417 111.768 121.971L109.618 119.312L114.428 114.504C118.573 110.361 119.316 109.774 119.864 110.204C120.216 110.439 121.467 111.416 122.601 112.315ZM187.871 166.768C187.871 167.51 167.535 187.876 166.753 187.876C166.44 187.876 155.92 177.635 143.406 165.126L120.607 142.336L131.439 131.509L142.311 120.642L165.072 143.392C177.625 155.94 187.871 166.455 187.871 166.768Z" fill="black"/>
</svg>
